<svg width="88" height="88" viewBox="0 0 88 88" fill="none" xmlns="http://www.w3.org/2000/svg">
<circle cx="44" cy="44" r="44" fill="#1B1918"/>
<g clip-path="url(#clip0_4111_13488)">
<path d="M39.3548 42.1726C39.3548 42.1726 43.4233 41.8705 43.4233 37.0996C43.4233 32.3283 40.0947 29.9999 35.8784 29.9999H22.0042V56.6624H35.8784C35.8784 56.6624 44.3482 56.9299 44.3482 48.7928C44.3482 48.7929 44.7174 42.1726 39.3548 42.1726ZM34.8798 34.7388H35.8784C35.8784 34.7388 37.7643 34.7388 37.7643 37.5129C37.7643 40.2867 36.6552 40.6889 35.3972 40.6889H28.1173V34.7388H34.8798ZM35.4864 51.9236H28.1173V44.7984H35.8784C35.8784 44.7984 38.6893 44.7615 38.6893 48.46C38.6893 51.5786 36.5899 51.9 35.4864 51.9236ZM55.644 36.7836C45.3905 36.7836 45.3996 47.0281 45.3996 47.0281C45.3996 47.0281 44.6961 57.2201 55.644 57.2201C55.644 57.2201 64.7672 57.7413 64.7672 50.1301H60.0753C60.0753 50.1301 60.2318 52.9963 55.8005 52.9963C55.8005 52.9963 51.1078 53.3108 51.1078 48.3577H64.9237C64.9237 48.3576 66.4354 36.7836 55.644 36.7836ZM51.0563 44.7984C51.0563 44.7984 51.6292 40.6888 55.7483 40.6888C59.8665 40.6888 59.8149 44.7984 59.8149 44.7984H51.0563ZM60.9079 34.8539H49.9076V31.5706H60.9079V34.8539Z" fill="#F8F8F8"/>
</g>
<defs>
<clipPath id="clip0_4111_13488">
<rect width="43" height="27.2276" fill="white" transform="translate(22 30)"/>
</clipPath>
</defs>
</svg>
